<svg width="1200" height="630" viewBox="0 0 1200 630" fill="none" xmlns="http://www.w3.org/2000/svg">
  <defs>
    <linearGradient id="bg-gradient-wc" x1="0%" y1="0%" x2="100%" y2="100%">
      <stop offset="0%" style="stop-color:#fef3c7;stop-opacity:1" />
      <stop offset="50%" style="stop-color:#f0f9ff;stop-opacity:1" />
      <stop offset="100%" style="stop-color:#fef2f2;stop-opacity:1" />
    </linearGradient>
    <linearGradient id="icon-gradient-wc" x1="0%" y1="0%" x2="100%" y2="100%">
      <stop offset="0%" style="stop-color:#f59e0b;stop-opacity:1" />
      <stop offset="100%" style="stop-color:#ef4444;stop-opacity:1" />
    </linearGradient>
  </defs>
  
  <rect width="1200" height="630" fill="url(#bg-gradient-wc)"/>
  
  <!-- Comparison/scale icon -->
  <g transform="translate(480, 245)">
    <!-- Balance scale -->
    <line x1="120" y1="40" x2="120" y2="120" stroke="url(#icon-gradient-wc)" stroke-width="4"/>
    <line x1="40" y1="60" x2="200" y2="60" stroke="url(#icon-gradient-wc)" stroke-width="3"/>
    
    <!-- Left scale -->
    <path d="M20 60 L60 60 L70 80 L50 100 L30 100 L10 80 Z" fill="url(#icon-gradient-wc)" opacity="0.7"/>
    <text x="40" y="85" text-anchor="middle" fill="white" font-family="system-ui" font-size="12" font-weight="bold">AI</text>
    
    <!-- Right scale -->
    <path d="M160 60 L200 60 L210 80 L190 100 L170 100 L150 80 Z" fill="url(#icon-gradient-wc)" opacity="0.7"/>
    <text x="180" y="85" text-anchor="middle" fill="white" font-family="system-ui" font-size="12" font-weight="bold">AI</text>
    
    <!-- Fulcrum -->
    <path d="M110 60 L130 60 L120 80 Z" fill="url(#icon-gradient-wc)"/>
    
    <!-- Base -->
    <rect x="100" y="120" width="40" height="8" rx="4" fill="url(#icon-gradient-wc)"/>
  </g>
  
  <!-- VS symbol -->
  <g transform="translate(580, 180)">
    <circle cx="20" cy="20" r="20" fill="url(#icon-gradient-wc)" opacity="0.2"/>
    <text x="20" y="27" text-anchor="middle" fill="url(#icon-gradient-wc)" font-family="system-ui" font-size="16" font-weight="bold">VS</text>
  </g>
  
  <!-- Decorative elements -->
  <circle cx="180" cy="160" r="5" fill="#f59e0b" opacity="0.4"/>
  <circle cx="1020" cy="450" r="7" fill="#ef4444" opacity="0.4"/>
  
  <rect x="0" y="480" width="1200" height="150" fill="white" opacity="0.8"/>
  
  <text x="600" y="530" text-anchor="middle" fill="#1f2937" font-family="system-ui, -apple-system, sans-serif" font-size="26" font-weight="600">
    AI写作工具深度对比
  </text>
  
  <text x="600" y="570" text-anchor="middle" fill="#6b7280" font-family="system-ui, -apple-system, sans-serif" font-size="16">
    ChatGPT vs Claude vs Jasper 专业评测
  </text>
</svg>