<svg width="1200" height="630" viewBox="0 0 1200 630" fill="none" xmlns="http://www.w3.org/2000/svg">
  <!-- Background gradient -->
  <defs>
    <linearGradient id="bg-gradient" x1="0%" y1="0%" x2="100%" y2="100%">
      <stop offset="0%" style="stop-color:#f0f9ff;stop-opacity:1" />
      <stop offset="50%" style="stop-color:#e0f2fe;stop-opacity:1" />
      <stop offset="100%" style="stop-color:#f0fdf4;stop-opacity:1" />
    </linearGradient>
    <linearGradient id="icon-gradient" x1="0%" y1="0%" x2="100%" y2="100%">
      <stop offset="0%" style="stop-color:#0ea5e9;stop-opacity:1" />
      <stop offset="100%" style="stop-color:#10b981;stop-opacity:1" />
    </linearGradient>
  </defs>
  
  <!-- Background -->
  <rect width="1200" height="630" fill="url(#bg-gradient)"/>
  
  <!-- Main icon circle -->
  <circle cx="600" cy="315" r="80" fill="url(#icon-gradient)" opacity="0.1"/>
  <circle cx="600" cy="315" r="60" fill="url(#icon-gradient)" opacity="0.2"/>
  
  <!-- AI icon -->
  <g transform="translate(570, 285)">
    <!-- Brain/AI symbol -->
    <path d="M30 20 C35 15, 45 15, 50 20 C55 25, 55 35, 50 40 L45 45 C40 50, 20 50, 15 45 L10 40 C5 35, 5 25, 10 20 Z" 
          fill="url(#icon-gradient)" opacity="0.8"/>
    <circle cx="20" cy="28" r="3" fill="white"/>
    <circle cx="40" cy="28" r="3" fill="white"/>
    <circle cx="30" cy="38" r="2" fill="white"/>
  </g>
  
  <!-- Decorative elements -->
  <circle cx="200" cy="150" r="4" fill="#0ea5e9" opacity="0.3"/>
  <circle cx="1000" cy="480" r="6" fill="#10b981" opacity="0.3"/>
  <circle cx="150" cy="500" r="3" fill="#0ea5e9" opacity="0.4"/>
  <circle cx="1050" cy="120" r="5" fill="#10b981" opacity="0.4"/>
  
  <!-- Bottom text area background -->
  <rect x="0" y="480" width="1200" height="150" fill="white" opacity="0.7"/>
  
  <!-- Title placeholder -->
  <text x="600" y="530" text-anchor="middle" fill="#1f2937" font-family="system-ui, -apple-system, sans-serif" font-size="32" font-weight="600">
    AI Compass 文章
  </text>
  
  <!-- Subtitle -->
  <text x="600" y="570" text-anchor="middle" fill="#6b7280" font-family="system-ui, -apple-system, sans-serif" font-size="18">
    专业AI工具评测与教程平台
  </text>
</svg>